<?xml version="1.0"?>
<svg version="1.1" xmlns="http://www.w3.org/2000/svg" width="135" height="44" style=""><path fill="#ff1a00" d="M21.336,22.36l0,7.56c0,2.76,0.792,3.84,3.144,3.84c2.544,0,3.096-1.368,3.096-4.2l0-7.2l-1.872-0.72l0-2.04l7.392-0.12l0,2.16l-1.8,0.72l0,7.2c0,4.632-1.776,7.128-6.936,7.128c-4.824,0-6.744-2.136-6.744-6.768l0-7.56l-1.776-0.72l0-2.04l7.368-0.12l0,2.16z M41.53224,23.44l0.168,1.656s2.28-1.848,4.416-1.848c2.328,0,3.648,1.656,3.648,4.272l0,6.36l1.68,0.6l0,1.92l-6.6,0l0-1.92l1.32-0.6l0-5.712c0-1.104-0.624-1.92-1.632-1.92c-1.488,0-2.568,1.368-2.568,1.368l0,6.264l1.32,0.6l0,1.92l-6.84,0l0-1.92l1.92-0.6l0-7.8l-1.92-0.6l0-1.92z M56.04048,19.48c0-1.368,0.984-2.16,2.064-2.16c1.248,0,2.016,0.648,2.016,2.16c0,1.416-1.032,2.184-2.016,2.184c-1.296,0-2.064-0.768-2.064-2.184z M60.07248,33.88l1.68,0.6l0,1.92l-7.2,0l0-1.92l1.92-0.6l0-7.8l-1.92-0.6l0-1.92l5.52-0.12l0,10.44z M72.10872,25.48l0-1.92l6.288-0.12l0,2.04l-1.368,0.312l-3.864,10.608l-3.96,0l-3.792-10.536l-1.152-0.384l0-1.92l6.288-0.12l0,2.04l-1.344,0.24l2.184,7.08l2.112-7.008z M92.73696,30.712l-7.968,0c0.144,1.92,1.248,3.048,2.904,3.048c1.992,0,4.032-1.128,4.032-1.128l1.032,1.992s-2.4,2.016-5.472,2.016c-4.128,0-6.24-2.4-6.24-6.48c0-4.2,2.376-6.96,6.408-6.96c3.576,0,5.448,2.208,5.448,5.64c0,0.912-0.144,1.8-0.144,1.872z M84.81696,28.48l4.344,0c0-1.368-0.576-2.4-1.968-2.4c-1.344,0-2.184,0.984-2.376,2.4z M101.2692,23.44l0.216,1.656s1.728-1.896,3.336-1.896c1.32,0,2.232,0.432,2.232,0.432l-0.192,4.608l-2.16,0l-0.36-2.04c-1.392,0-2.592,1.344-2.592,1.344l0,6.336l2.4,0.6l0,1.92l-7.92,0l0-1.92l1.92-0.6l0-7.8l-1.92-0.6l0-1.92z M111.91344,32.2l0.192,1.56s0.84,0.24,2.016,0.24c1.32,0,1.968-0.408,1.968-1.176c0-1.968-6.408-1.248-6.408-5.52c0-3,2.4-4.104,4.944-4.104c2.16,0,4.464,0.72,4.464,0.72l-0.096,3.6l-2.04,0l-0.36-1.44s-0.696-0.24-1.656-0.24c-1.032,0-1.656,0.432-1.656,1.224c0,1.944,6.408,1.104,6.408,5.256c0,2.76-2.232,4.32-5.52,4.32c-2.28,0-4.416-0.528-4.416-0.528l0-3.912l2.16,0z M134.74968,30.712l-7.968,0c0.144,1.92,1.248,3.048,2.904,3.048c1.992,0,4.032-1.128,4.032-1.128l1.032,1.992s-2.4,2.016-5.472,2.016c-4.128,0-6.24-2.4-6.24-6.48c0-4.2,2.376-6.96,6.408-6.96c3.576,0,5.448,2.208,5.448,5.64c0,0.912-0.144,1.8-0.144,1.872z M126.82968,28.48l4.344,0c0-1.368-0.576-2.4-1.968-2.4c-1.344,0-2.184,0.984-2.376,2.4z"/><path fill="#" d=""/></svg>
